<svg width="240" height="110" viewBox="0 0 240 110" fill="none" xmlns="http://www.w3.org/2000/svg">
<rect width="16" height="110" rx="8" fill="#FAF9FF"/>
<rect y="27" width="16" height="83" rx="8" fill="url(#paint0_linear_23_192)"/>
<rect x="128" width="16" height="110" rx="8" fill="#FAF9FF"/>
<rect x="128" y="84" width="16" height="26" rx="8" fill="url(#paint1_linear_23_192)"/>
<rect x="32" width="16" height="110" rx="8" fill="#FAF9FF"/>
<rect x="32" y="63" width="16" height="47" rx="8" fill="url(#paint2_linear_23_192)"/>
<rect x="160" width="16" height="110" rx="8" fill="#FAF9FF"/>
<rect x="160" y="14" width="16" height="96" rx="8" fill="url(#paint3_linear_23_192)"/>
<rect x="64" width="16" height="110" rx="8" fill="#FAF9FF"/>
<rect x="64" y="14" width="16" height="96" rx="8" fill="url(#paint4_linear_23_192)"/>
<rect x="192" width="16" height="110" rx="8" fill="#FAF9FF"/>
<rect x="192" y="8" width="16" height="102" rx="8" fill="url(#paint5_linear_23_192)"/>
<rect x="96" width="16" height="110" rx="8" fill="#FAF9FF"/>
<rect x="96" y="40" width="16" height="70" rx="8" fill="url(#paint6_linear_23_192)"/>
<rect x="224" width="16" height="110" rx="8" fill="#FAF9FF"/>
<rect x="224" y="32" width="16" height="78" rx="8" fill="url(#paint7_linear_23_192)"/>
<defs>
<linearGradient id="paint0_linear_23_192" x1="8" y1="27" x2="8" y2="110" gradientUnits="userSpaceOnUse">
<stop stop-color="#FF2E2E"/>
<stop offset="1" stop-color="#FF2E2E"/>
</linearGradient>
<linearGradient id="paint1_linear_23_192" x1="136" y1="84" x2="136" y2="110" gradientUnits="userSpaceOnUse">
<stop stop-color="#FF2E2E"/>
<stop offset="1" stop-color="#FF2E2E"/>
</linearGradient>
<linearGradient id="paint2_linear_23_192" x1="40" y1="63" x2="40" y2="110" gradientUnits="userSpaceOnUse">
<stop stop-color="#FF2E2E"/>
<stop offset="1" stop-color="#FF2E2E"/>
</linearGradient>
<linearGradient id="paint3_linear_23_192" x1="168" y1="14" x2="168" y2="110" gradientUnits="userSpaceOnUse">
<stop stop-color="#FF2E2E"/>
<stop offset="1" stop-color="#FF2E2E"/>
</linearGradient>
<linearGradient id="paint4_linear_23_192" x1="72" y1="14" x2="72" y2="110" gradientUnits="userSpaceOnUse">
<stop stop-color="#FF2E2E"/>
<stop offset="1" stop-color="#FF2E2E"/>
</linearGradient>
<linearGradient id="paint5_linear_23_192" x1="200" y1="8" x2="200" y2="110" gradientUnits="userSpaceOnUse">
<stop stop-color="#FF2E2E"/>
<stop offset="1" stop-color="#FF2E2E"/>
</linearGradient>
<linearGradient id="paint6_linear_23_192" x1="104" y1="40" x2="104" y2="110" gradientUnits="userSpaceOnUse">
<stop stop-color="#FF2E2E"/>
<stop offset="1" stop-color="#FF2E2E"/>
</linearGradient>
<linearGradient id="paint7_linear_23_192" x1="232" y1="32" x2="232" y2="110" gradientUnits="userSpaceOnUse">
<stop stop-color="#FF2E2E"/>
<stop offset="1" stop-color="#FF2E2E"/>
</linearGradient>
</defs>
</svg>
