<svg width="120" height="143" viewBox="0 0 120 143" fill="none" xmlns="http://www.w3.org/2000/svg">
<path d="M112.603 53.1982C110.477 57.6686 105.017 60.5219 97.0927 60.9622C89.2543 61.3978 79.5074 59.4064 69.7746 54.7786C60.0418 50.1509 52.3448 43.848 47.7349 37.4936C43.0745 31.0695 41.841 25.0334 43.9666 20.563C46.0921 16.0927 51.5523 13.2393 59.4767 12.799C67.3151 12.3635 77.062 14.3549 86.7949 18.9826C96.5277 23.6104 104.225 29.9132 108.834 36.2676C113.495 42.6918 114.728 48.7279 112.603 53.1982Z" fill="#FF2E2E" stroke="black" stroke-width="4"/>
<path d="M79.8115 122.163C77.6859 126.633 72.2257 129.487 64.3013 129.927C56.4629 130.362 46.716 128.371 36.9832 123.743C27.2504 119.116 19.5534 112.813 14.9436 106.458C10.2831 100.034 9.04962 93.9981 11.1752 89.5277C13.3007 85.0574 18.761 82.204 26.6854 81.7637C34.5237 81.3282 44.2707 83.3196 54.0035 87.9474C63.7363 92.5751 71.4332 98.8779 76.0431 105.232C80.7036 111.657 81.937 117.693 79.8115 122.163Z" fill="#7FBC8C" stroke="black" stroke-width="4"/>
<path d="M43.9664 20.5632L11.4874 88.8711" stroke="black" stroke-width="4"/>
<path d="M112.603 53.1984L80.1237 121.506" stroke="black" stroke-width="4"/>
<path d="M69.6184 55.107L36.9832 123.743" stroke="black" stroke-width="4.19524"/>
</svg>
