<svg width="78" height="78" viewBox="0 0 78 78" fill="none" xmlns="http://www.w3.org/2000/svg">
<circle cx="39" cy="39" r="39" fill="#A17FBC"/>
<path fill-rule="evenodd" clip-rule="evenodd" d="M74 39C74 58.33 58.33 74 39 74C19.67 74 4 58.33 4 39C4 19.67 19.67 4 39 4C58.33 4 74 19.67 74 39ZM78 39C78 60.5391 60.5391 78 39 78C17.4609 78 0 60.5391 0 39C0 17.4609 17.4609 0 39 0C60.5391 0 78 17.4609 78 39ZM39.142 10C40.2465 10 41.142 10.8954 41.142 12V28C41.142 29.1046 40.2465 30 39.142 30C38.0374 30 37.142 29.1046 37.142 28V12C37.142 10.8954 38.0374 10 39.142 10ZM59.87 21.4142C60.6511 20.6332 60.6511 19.3668 59.87 18.5858C59.089 17.8047 57.8226 17.8047 57.0416 18.5858L45.7279 29.8995C44.9468 30.6805 44.9468 31.9469 45.7279 32.7279C46.5089 33.509 47.7753 33.509 48.5563 32.7279L59.87 21.4142ZM32.5563 45.8993C33.3373 46.6803 33.3373 47.9466 32.5563 48.7277L21.2426 60.0414C20.4615 60.8224 19.1952 60.8224 18.4142 60.0414C17.6331 59.2603 17.6331 57.994 18.4142 57.213L29.7279 45.8993C30.5089 45.1182 31.7752 45.1182 32.5563 45.8993ZM45.7279 45.8993C46.5089 45.1182 47.7753 45.1182 48.5563 45.8993L59.87 57.213C60.6511 57.994 60.6511 59.2603 59.87 60.0414C59.089 60.8224 57.8226 60.8224 57.0416 60.0414L45.7279 48.7277C44.9468 47.9466 44.9468 46.6803 45.7279 45.8993ZM18.4142 18.5858C19.1952 17.8047 20.4615 17.8047 21.2426 18.5858L32.5563 29.8995C33.3373 30.6805 33.3373 31.9469 32.5563 32.7279C31.7752 33.509 30.5089 33.509 29.7279 32.7279L18.4142 21.4142C17.6331 20.6332 17.6331 19.3668 18.4142 18.5858ZM41.1421 50.627C41.1421 49.5224 40.2467 48.627 39.1421 48.627C38.0375 48.627 37.1421 49.5224 37.1421 50.627V66.627C37.1421 67.7315 38.0375 68.627 39.1421 68.627C40.2467 68.627 41.1421 67.7315 41.1421 66.627V50.627ZM29.8284 39.3135C29.8284 40.418 28.9329 41.3135 27.8284 41.3135H11.8284C10.7238 41.3135 9.82837 40.418 9.82837 39.3135C9.82837 38.2089 10.7238 37.3135 11.8284 37.3135H27.8284C28.9329 37.3135 29.8284 38.2089 29.8284 39.3135ZM66.4557 41.3135C67.5603 41.3135 68.4557 40.418 68.4557 39.3135C68.4557 38.2089 67.5603 37.3135 66.4557 37.3135H50.4557C49.3511 37.3135 48.4557 38.2089 48.4557 39.3135C48.4557 40.418 49.3511 41.3135 50.4557 41.3135H66.4557Z" fill="black"/>
</svg>
