<svg width="114" height="114" viewBox="0 0 114 114" fill="none" xmlns="http://www.w3.org/2000/svg">
<path d="M78 74.1C78 95.0269 60.9915 112 40 112C19.0085 112 2 95.0269 2 74.1C2 53.1731 19.0085 36.2 40 36.2C60.9915 36.2 78 53.1731 78 74.1Z" stroke="black" stroke-width="4"/>
<path d="M112 39.9C112 60.8269 94.9915 77.8001 74 77.8001C53.0085 77.8001 36 60.8269 36 39.9C36 18.9731 53.0085 2 74 2C94.9915 2 112 18.9731 112 39.9Z" fill="#FF2E2E" stroke="black" stroke-width="4"/>
<mask id="mask0_24_166" style="mask-type:alpha" maskUnits="userSpaceOnUse" x="38" y="3" width="72" height="73">
<ellipse cx="74" cy="39.9" rx="36" ry="35.91" fill="#746BEB"/>
</mask>
<g mask="url(#mask0_24_166)">
<path fill-rule="evenodd" clip-rule="evenodd" d="M167.832 20.7262L91.5658 -55.3491L88.2737 -52.0653L164.54 24.01L167.832 20.7262ZM156.858 31.6719L80.5924 -44.4034L77.3004 -41.1196L153.566 34.9557L156.858 31.6719ZM69.6188 -33.4572L145.885 42.6181L142.593 45.9019L66.3267 -30.1734L69.6188 -33.4572ZM134.911 53.5643L58.6454 -22.511L55.3533 -19.2272L131.619 56.8482L134.911 53.5643ZM37.1598 -22.0507L131.35 71.9036L128.058 75.1875L33.8677 -18.7669L37.1598 -22.0507ZM124.538 87.0008L28.8224 -8.47538L25.5303 -5.19155L121.246 90.2847L124.538 87.0008ZM25.7247 10.3271L101.991 86.4025L98.6986 89.6863L22.4327 13.6109L25.7247 10.3271ZM91.0173 97.3482L14.7513 21.2728L11.4593 24.5567L87.7252 100.632L91.0173 97.3482ZM3.77771 32.219L80.0437 108.294L76.7516 111.578L0.485653 35.5029L3.77771 32.219ZM69.0703 119.241L-7.19569 43.1657L-10.4877 46.4496L65.7782 122.525L69.0703 119.241Z" fill="white"/>
</g>
</svg>
